<svg xmlns="http://www.w3.org/2000/svg" version="1.1" viewBox="0 0 1347 375" width="2694" height="750"><g transform="translate(45.75, 40)"><g class="x-axis" transform="translate(387, 295)" fill="none" font-size="10" font-family="sans-serif" text-anchor="middle" style="font-size: 12px;"><path class="domain" stroke="currentColor" d="M0.5,6V0.5H910.5V6"></path><g class="tick" opacity="1" transform="translate(0.5,0)"><line stroke="currentColor" y2="6"></line><text fill="currentColor" y="9" dy="0.71em">0</text></g><g class="tick" opacity="1" transform="translate(76.33333333333333,0)"><line stroke="currentColor" y2="6"></line><text fill="currentColor" y="9" dy="0.71em">2</text></g><g class="tick" opacity="1" transform="translate(152.16666666666666,0)"><line stroke="currentColor" y2="6"></line><text fill="currentColor" y="9" dy="0.71em">4</text></g><g class="tick" opacity="1" transform="translate(228,0)"><line stroke="currentColor" y2="6"></line><text fill="currentColor" y="9" dy="0.71em">6</text></g><g class="tick" opacity="1" transform="translate(303.8333333333333,0)"><line stroke="currentColor" y2="6"></line><text fill="currentColor" y="9" dy="0.71em">8</text></g><g class="tick" opacity="1" transform="translate(379.6666666666667,0)"><line stroke="currentColor" y2="6"></line><text fill="currentColor" y="9" dy="0.71em">10</text></g><g class="tick" opacity="1" transform="translate(455.5,0)"><line stroke="currentColor" y2="6"></line><text fill="currentColor" y="9" dy="0.71em">12</text></g><g class="tick" opacity="1" transform="translate(531.3333333333334,0)"><line stroke="currentColor" y2="6"></line><text fill="currentColor" y="9" dy="0.71em">14</text></g><g class="tick" opacity="1" transform="translate(607.1666666666666,0)"><line stroke="currentColor" y2="6"></line><text fill="currentColor" y="9" dy="0.71em">16</text></g><g class="tick" opacity="1" transform="translate(683,0)"><line stroke="currentColor" y2="6"></line><text fill="currentColor" y="9" dy="0.71em">18</text></g><g class="tick" opacity="1" transform="translate(758.8333333333334,0)"><line stroke="currentColor" y2="6"></line><text fill="currentColor" y="9" dy="0.71em">20</text></g><g class="tick" opacity="1" transform="translate(834.6666666666666,0)"><line stroke="currentColor" y2="6"></line><text fill="currentColor" y="9" dy="0.71em">22</text></g><g class="tick" opacity="1" transform="translate(910.5,0)"><line stroke="currentColor" y2="6"></line><text fill="currentColor" y="9" dy="0.71em">24</text></g><text class="x-label" x="0" y="30" fill="#000">Enrichment ratio</text></g><g class="y-axis" transform="translate(387,0)" fill="none" font-size="10" font-family="sans-serif" text-anchor="end" style="font-size: 12px;"><path class="domain" stroke="currentColor" d="M0.5,0.5V295.5"></path><g class="tick" opacity="1" transform="translate(0,17.5)"><text fill="currentColor" x="-6" dy="0.32em">ER-nucleus signaling pathway</text></g><g class="tick" opacity="1" transform="translate(0,46.5)"><text fill="currentColor" x="-6" dy="0.32em">intrinsic apoptotic signaling pathway in response to endoplasmic ...</text></g><g class="tick" opacity="1" transform="translate(0,75.5)"><text fill="currentColor" x="-6" dy="0.32em">endoplasmic reticulum unfolded protein response</text></g><g class="tick" opacity="1" transform="translate(0,104.5)"><text fill="currentColor" x="-6" dy="0.32em">regulation of response to endoplasmic reticulum stress</text></g><g class="tick" opacity="1" transform="translate(0,133.5)"><text fill="currentColor" x="-6" dy="0.32em">cellular response to unfolded protein</text></g><g class="tick" opacity="1" transform="translate(0,162.5)"><text fill="currentColor" x="-6" dy="0.32em">cellular response to topologically incorrect protein</text></g><g class="tick" opacity="1" transform="translate(0,191.5)"><text fill="currentColor" x="-6" dy="0.32em">response to unfolded protein</text></g><g class="tick" opacity="1" transform="translate(0,220.5)"><text fill="currentColor" x="-6" dy="0.32em">response to topologically incorrect protein</text></g><g class="tick" opacity="1" transform="translate(0,249.5)"><text fill="currentColor" x="-6" dy="0.32em">response to endoplasmic reticulum stress</text></g><g class="tick" opacity="1" transform="translate(0,278.5)"><text fill="currentColor" x="-6" dy="0.32em">cellular response to stress</text></g></g><rect class="wg-bar" fill="steelblue" x="0" y="4" transform="translate(387,0)" width="877.5601851851835" height="26"></rect><rect class="wg-bar" fill="steelblue" x="0" y="33" transform="translate(387,0)" width="647.3804644808753" height="26"></rect><rect class="wg-bar" fill="steelblue" x="0" y="62" transform="translate(387,0)" width="637.7300724637682" height="26"></rect><rect class="wg-bar" fill="steelblue" x="0" y="91" transform="translate(387,0)" width="578.6111111111126" height="26"></rect><rect class="wg-bar" fill="steelblue" x="0" y="120" transform="translate(387,0)" width="555.5981691919181" height="26"></rect><rect class="wg-bar" fill="steelblue" x="0" y="149" transform="translate(387,0)" width="507.73125000000056" height="26"></rect><rect class="wg-bar" fill="steelblue" x="0" y="178" transform="translate(387,0)" width="486.9115823412712" height="26"></rect><rect class="wg-bar" fill="steelblue" x="0" y="207" transform="translate(387,0)" width="450.1163563829774" height="26"></rect><rect class="wg-bar" fill="steelblue" x="0" y="236" transform="translate(387,0)" width="421.00435323383175" height="26"></rect><rect class="wg-bar" fill="steelblue" x="0" y="265" transform="translate(387,0)" width="110.29096366720212" height="26"></rect></g><g class="legend" font-size="12"><rect fill="steelblue" x="0" y="0" width="20" height="10"></rect><rect fill="lightsteelblue" x="120" y="0" width="20" height="10"></rect><text x="23" y="10">FDR ≤ 0.05</text><text x="143" y="10">FDR &gt; 0.05</text></g></svg>