<svg xmlns="http://www.w3.org/2000/svg" version="1.1" viewBox="0 0 1959 375" width="3918" height="750"><g transform="translate(-312.0390625, 40)"><g class="x-axis" transform="translate(999, 295)" fill="none" font-size="10" font-family="sans-serif" text-anchor="middle" style="font-size: 12px;"><path class="domain" stroke="currentColor" d="M0.5,6V0.5H910.5V6"></path><g class="tick" opacity="1" transform="translate(0.5,0)"><line stroke="currentColor" y2="6"></line><text fill="currentColor" y="9" dy="0.71em">0</text></g><g class="tick" opacity="1" transform="translate(76.33333333333333,0)"><line stroke="currentColor" y2="6"></line><text fill="currentColor" y="9" dy="0.71em">2</text></g><g class="tick" opacity="1" transform="translate(152.16666666666666,0)"><line stroke="currentColor" y2="6"></line><text fill="currentColor" y="9" dy="0.71em">4</text></g><g class="tick" opacity="1" transform="translate(228,0)"><line stroke="currentColor" y2="6"></line><text fill="currentColor" y="9" dy="0.71em">6</text></g><g class="tick" opacity="1" transform="translate(303.8333333333333,0)"><line stroke="currentColor" y2="6"></line><text fill="currentColor" y="9" dy="0.71em">8</text></g><g class="tick" opacity="1" transform="translate(379.6666666666667,0)"><line stroke="currentColor" y2="6"></line><text fill="currentColor" y="9" dy="0.71em">10</text></g><g class="tick" opacity="1" transform="translate(455.5,0)"><line stroke="currentColor" y2="6"></line><text fill="currentColor" y="9" dy="0.71em">12</text></g><g class="tick" opacity="1" transform="translate(531.3333333333334,0)"><line stroke="currentColor" y2="6"></line><text fill="currentColor" y="9" dy="0.71em">14</text></g><g class="tick" opacity="1" transform="translate(607.1666666666666,0)"><line stroke="currentColor" y2="6"></line><text fill="currentColor" y="9" dy="0.71em">16</text></g><g class="tick" opacity="1" transform="translate(683,0)"><line stroke="currentColor" y2="6"></line><text fill="currentColor" y="9" dy="0.71em">18</text></g><g class="tick" opacity="1" transform="translate(758.8333333333334,0)"><line stroke="currentColor" y2="6"></line><text fill="currentColor" y="9" dy="0.71em">20</text></g><g class="tick" opacity="1" transform="translate(834.6666666666666,0)"><line stroke="currentColor" y2="6"></line><text fill="currentColor" y="9" dy="0.71em">22</text></g><g class="tick" opacity="1" transform="translate(910.5,0)"><line stroke="currentColor" y2="6"></line><text fill="currentColor" y="9" dy="0.71em">24</text></g><text class="x-label" x="0" y="30" fill="#000">Enrichment ratio</text></g><g class="y-axis" transform="translate(999,0)" fill="none" font-size="10" font-family="sans-serif" text-anchor="end" style="font-size: 12px;"><path class="domain" stroke="currentColor" d="M0.5,0.5V295.5"></path><g class="tick" opacity="1" transform="translate(0,17.5)"><text fill="currentColor" x="-6" dy="0.32em">ER-nucleus signaling pathway</text></g><g class="tick" opacity="1" transform="translate(0,46.5)"><text fill="currentColor" x="-6" dy="0.32em">endoplasmic reticulum to cytosol transport</text></g><g class="tick" opacity="1" transform="translate(0,75.5)"><text fill="currentColor" x="-6" dy="0.32em">response to topologically incorrect protein</text></g><g class="tick" opacity="1" transform="translate(0,104.5)"><text fill="currentColor" x="-6" dy="0.32em">response to endoplasmic reticulum stress</text></g><g class="tick" opacity="1" transform="translate(0,133.5)"><text fill="currentColor" x="-6" dy="0.32em">protein exit from endoplasmic reticulum</text></g><g class="tick" opacity="1" transform="translate(0,162.5)"><text fill="currentColor" x="-6" dy="0.32em">regulation of DNA-templated transcription in response to stress</text></g><g class="tick" opacity="1" transform="translate(0,191.5)"><text fill="currentColor" x="-6" dy="0.32em">protein folding</text></g><g class="tick" opacity="1" transform="translate(0,220.5)"><text fill="currentColor" x="-6" dy="0.32em">intrinsic apoptotic signaling pathway</text></g><g class="tick" opacity="1" transform="translate(0,249.5)"><text fill="currentColor" x="-6" dy="0.32em">regulation of cellular amide metabolic process</text></g><g class="tick" opacity="1" transform="translate(0,278.5)"><text fill="currentColor" x="-6" dy="0.32em">response to nutrient levels</text></g></g><rect class="wg-bar" fill="steelblue" x="0" y="4" transform="translate(999,0)" width="863.7416666666667" height="26"></rect><rect class="wg-bar" fill="steelblue" x="0" y="33" transform="translate(999,0)" width="616.9583333333345" height="26"></rect><rect class="wg-bar" fill="steelblue" x="0" y="62" transform="translate(999,0)" width="482.4089095744669" height="26"></rect><rect class="wg-bar" fill="steelblue" x="0" y="91" transform="translate(999,0)" width="467.3229166666667" height="26"></rect><rect class="wg-bar" fill="steelblue" x="0" y="120" transform="translate(999,0)" width="459.437056737587" height="26"></rect><rect class="wg-bar" fill="steelblue" x="0" y="149" transform="translate(999,0)" width="387.57638888889" height="26"></rect><rect class="wg-bar" fill="steelblue" x="0" y="178" transform="translate(999,0)" width="205.65277777777763" height="26"></rect><rect class="wg-bar" fill="steelblue" x="0" y="207" transform="translate(999,0)" width="181.84035087719298" height="26"></rect><rect class="wg-bar" fill="steelblue" x="0" y="236" transform="translate(999,0)" width="145.8265151515153" height="26"></rect><rect class="wg-bar" fill="steelblue" x="0" y="265" transform="translate(999,0)" width="134.12137681159413" height="26"></rect></g><g class="legend" font-size="12"><rect fill="steelblue" x="0" y="0" width="20" height="10"></rect><rect fill="lightsteelblue" x="120" y="0" width="20" height="10"></rect><text x="23" y="10">FDR ≤ 0.05</text><text x="143" y="10">FDR &gt; 0.05</text></g></svg>